<svg xmlns="http://www.w3.org/2000/svg" viewBox="0 0 1230.65 261.8"><path d="M197.62,261.46,120,260c-25.14-.5-50.34.49-75-4.63C7.49,247.75,4.83,210.19,2.05,178.68A538,538,0,0,1,6.93,45.38C11,20.74,27.07,6,51.9,4.43,135.72-1.38,220.11-.69,303.75,2a182.58,182.58,0,0,1,26.43,3.15c43,7.54,44.05,50.1,46.83,85.93a487.17,487.17,0,0,1-3.7,108.53c-4.27,29.77-12.42,54.73-46.83,57.14-43.12,3.15-85.25,5.69-128.49,4.88C198,261.46,197.74,261.46,197.62,261.46Z" style="fill:#c00"/><path d="M294.72,139.89a5.81,5.81,0,0,0-2.56-1.2,123.56,123.56,0,0,1-18.28,15.23,16.9,16.9,0,0,1-8.55,2.76c-5.3,0-7.61-5.06-8.3-13.1-.92-10.79-1.54-23.72-1.54-43.71,0-20.5-4.65-34.43-17.05-35.52-.52,0-1.05-.08-1.6-.08-7.61,0-11.3,3.9-16.14,13.78-4.15,8.5-10.6,20.9-22.59,44.33-10.37,20.22-21.9,38.13-31.81,50.54-2.76,3.44-4.94,5.8-7,7.14a7.29,7.29,0,0,1-4.07,1.35c-3.92,0-6.77-3.3-7.73-11a52.3,52.3,0,0,1-.34-6.23c0-15.85,6-41.58,16.36-79.48,7.61-27.56,4.38-46.4-12.21-46.4h-.2a15.73,15.73,0,0,0-9.88,3.76c-3,2.33-5.91,7.36-8.67,14.12-3.12,7.61-22,45.57-52.16,65.13-.36,7.43,3.85,14.87,12.38,15.67,7.76.74,13.28-2.53,20.37-7.3-.53,2.37-1,4.58-1.47,6.61-.53,2.4-1,4.46-1.34,6.13-.54,2.48-.88,4.08-1,4.52a126.39,126.39,0,0,0-2.14,12.9c-4.25,38,13.35,56.7,33.95,56.7a41.47,41.47,0,0,0,10.25-1.27c22.71-5.76,44.56-31.8,70.44-91.76a162.86,162.86,0,0,0-.15,18.27c1.7,34.36,15.29,44.67,34.49,44.67,14.52,0,28.12-7.58,35-17a33.59,33.59,0,0,0,7.15-19.76c0-4.45-1.42-8-3.67-9.82" style="fill:#f2f2f2;fill-rule:evenodd"/><path d="M421.75,72.9H461.7l23.45,42.46,23.5-42.46h39.73L503.13,146v52.71H467.08V146Z" style="fill:#f2f2f2"/><path d="M540.05,153.42q0-20.85,13-34.38t35.17-13.52q25.34,0,38.27,15.88,10.41,12.79,10.4,31.51,0,21-12.9,34.46t-35.69,13.44q-20.33,0-32.87-11.16Q540,175.82,540.05,153.42Zm32.39-.08q0,12.18,4.57,18a14.25,14.25,0,0,0,22.94.09q4.49-5.76,4.49-18.46,0-11.84-4.53-17.64t-11.19-5.79a14.22,14.22,0,0,0-11.67,5.88Q572.45,141.32,572.44,153.34Z" style="fill:#f2f2f2"/><path d="M741.32,198.75H711.15V184q-6.75,9.11-13.62,13t-16.87,3.87q-13.33,0-20.92-8.63t-7.58-26.57v-58h32.47v50.13q0,8.59,2.94,12.19a10,10,0,0,0,8.26,3.61,11.43,11.43,0,0,0,9.48-4.81q3.71-4.8,3.7-17.25V107.58h32.31Z" style="fill:#f2f2f2"/><path d="M849.7,72.9V198.75H819.45V185.27q-6.36,8.58-11.59,11.59a31.13,31.13,0,0,1-15.57,3.95q-17.22,0-26.32-14.17t-9.09-34.42q0-22.66,10-34.68a31.81,31.81,0,0,1,25.52-12,33.26,33.26,0,0,1,13.7,2.75,31.33,31.33,0,0,1,10.92,8.24V72.9Zm-32.39,80q0-10.74-4.21-16a13.05,13.05,0,0,0-10.64-5.28q-5.64,0-9.45,5.06t-3.81,17q0,11.16,3.93,16.35t9.72,5.2A12.68,12.68,0,0,0,813.18,170Q817.31,164.76,817.31,152.91Z" style="fill:#f2f2f2"/><path d="M963,161.83H898.21q.87,8.41,4.21,12.54a14.85,14.85,0,0,0,12.23,5.92,17.3,17.3,0,0,0,9.05-2.58,22,22,0,0,0,5.63-5.75l31.84,3.18q-7.3,13.74-17.62,19.7t-29.62,6q-16.75,0-26.36-5.11t-15.92-16.23q-6.31-11.11-6.31-26.13,0-21.37,12.66-34.6t35-13.22q18.1,0,28.58,5.93a38.6,38.6,0,0,1,16,17.16Q963,139.86,963,157.89ZM930.13,145.1q-1-10.14-5-14.51a14,14,0,0,0-10.76-4.38A14.29,14.29,0,0,0,902,132.82q-2.94,4.13-3.73,12.28Z" style="fill:#f2f2f2"/><path d="M978.08,107.58h30.18v13.31q6.51-8.33,13.16-11.85a33.85,33.85,0,0,1,16-3.52q10.1,0,16,3.87a28.05,28.05,0,0,1,9.62,11.5q7.61-8.92,13.88-12.15t15.46-3.22q13.56,0,21.17,8.72t7.61,27.25v57.26h-32.39V146.81q0-6.18-2.22-9.18-3.24-4.73-8.07-4.72a11.09,11.09,0,0,0-9.18,4.46q-3.48,4.47-3.48,14.34v47h-32.39V148.53a34.23,34.23,0,0,0-.64-8.16,11.17,11.17,0,0,0-3.59-5.53,9.11,9.11,0,0,0-6-2.11,11.19,11.19,0,0,0-9.17,4.55q-3.59,4.56-3.58,14.94v46.53h-32.4Z" style="fill:#f2f2f2"/><path d="M1131.16,107.58h34.1l17.39,60.69,16.16-60.69h31.84L1197.2,205q-5.71,16.66-11.67,22.51-8.41,8.24-25.64,8.24a170.32,170.32,0,0,1-21.58-2.06l-2.54-24.38a47.33,47.33,0,0,0,15.55,2.41,14.3,14.3,0,0,0,9.24-2.84q3.53-2.84,6-10.14Z" style="fill:#f2f2f2"/></svg>