<svg xmlns="http://www.w3.org/2000/svg" viewBox="0 0 500 500"><path d="M258.38,383.22l-77.64-1.42c-25.14-.5-50.35.49-75-4.64C68.25,369.5,65.6,332,62.82,300.44a538,538,0,0,1,4.88-133.3c4.08-24.64,20.13-39.35,45-40.95,83.83-5.81,168.21-5.12,251.85-2.41A182.72,182.72,0,0,1,391,126.93c43,7.54,44,50.1,46.83,85.93a487.18,487.18,0,0,1-3.71,108.53c-4.26,29.77-12.42,54.73-46.83,57.14-43.12,3.15-85.25,5.69-128.49,4.88C258.76,383.22,258.51,383.22,258.38,383.22Z" style="fill:#c00"/><path d="M355.49,261.65a5.91,5.91,0,0,0-2.56-1.2,124.6,124.6,0,0,1-18.28,15.23,16.91,16.91,0,0,1-8.55,2.75c-5.31,0-7.61-5.05-8.3-13.09-.93-10.79-1.55-23.72-1.55-43.71,0-20.5-4.65-34.43-17-35.52-.53-.05-1-.08-1.61-.08-7.6,0-11.29,3.9-16.13,13.78-4.15,8.5-10.61,20.9-22.59,44.33-10.38,20.21-21.9,38.13-31.82,50.54-2.76,3.43-4.94,5.8-7,7.14a7.27,7.27,0,0,1-4.07,1.35c-3.91,0-6.77-3.3-7.72-11a50.13,50.13,0,0,1-.35-6.23c0-15.85,6-41.58,16.37-79.48,7.61-27.56,4.38-46.4-12.22-46.4h-.2a15.7,15.7,0,0,0-9.87,3.76c-3,2.33-5.92,7.36-8.68,14.11-3.11,7.62-22,45.58-52.16,65.14-.35,7.43,3.85,14.86,12.38,15.67,7.77.74,13.28-2.54,20.38-7.3-.53,2.37-1,4.58-1.47,6.61-.53,2.4-1,4.46-1.34,6.13-.55,2.48-.89,4.08-1,4.52a126.53,126.53,0,0,0-2.15,12.9c-4.24,38,13.35,56.7,34,56.7a41.53,41.53,0,0,0,10.25-1.27c22.7-5.76,44.56-31.81,70.43-91.76a167.6,167.6,0,0,0-.15,18.26c1.7,34.37,15.3,44.68,34.5,44.68,14.52,0,28.12-7.58,35-17a33.52,33.52,0,0,0,7.15-19.76c0-4.45-1.41-8-3.66-9.82" style="fill:#fff;fill-rule:evenodd"/></svg>