<svg xmlns="http://www.w3.org/2000/svg" viewBox="0 0 1375.06 355.65"><path d="M265.27,308.38,187.62,307c-25.14-.49-50.34.49-75-4.63-37.5-7.66-40.15-45.22-42.93-76.72A538.11,538.11,0,0,1,74.58,92.3c4.08-24.64,20.14-39.35,45-40.95,83.82-5.8,168.2-5.11,251.84-2.41a181.19,181.19,0,0,1,26.44,3.16c43,7.53,44,50.09,46.83,85.92A486.58,486.58,0,0,1,441,246.55c-4.26,29.77-12.41,54.73-46.83,57.14-43.12,3.15-85.24,5.69-128.48,4.88C265.64,308.38,265.39,308.38,265.27,308.38Z" style="fill:#c00"/><path d="M362.37,186.82a5.72,5.72,0,0,0-2.56-1.21,122.84,122.84,0,0,1-18.28,15.23A16.93,16.93,0,0,1,333,203.6c-5.3,0-7.61-5.06-8.3-13.1-.92-10.79-1.55-23.72-1.55-43.71,0-20.49-4.65-34.43-17-35.52-.52,0-1-.08-1.61-.08-7.6,0-11.29,3.9-16.13,13.78-4.15,8.5-10.6,20.9-22.59,44.33-10.37,20.22-21.9,38.14-31.81,50.54-2.76,3.44-4.95,5.8-7,7.14a7.21,7.21,0,0,1-4.07,1.36c-3.91,0-6.77-3.31-7.72-11a50.3,50.3,0,0,1-.35-6.24c0-15.85,6-41.58,16.37-79.48,7.61-27.56,4.38-46.39-12.22-46.39h-.2A15.68,15.68,0,0,0,208.89,89c-3,2.32-5.92,7.35-8.68,14.11-3.11,7.61-22,45.57-52.16,65.13-.35,7.44,3.86,14.87,12.39,15.67,7.76.74,13.27-2.53,20.37-7.3-.53,2.37-1,4.59-1.47,6.62-.53,2.39-1,4.45-1.34,6.12-.54,2.48-.89,4.08-1,4.52a129.84,129.84,0,0,0-2.15,12.9c-4.24,38,13.35,56.7,34,56.7a41.47,41.47,0,0,0,10.25-1.27c22.7-5.76,44.56-31.8,70.43-91.76a167.78,167.78,0,0,0-.15,18.27c1.71,34.36,15.3,44.67,34.5,44.67,14.52,0,28.12-7.58,35-17A33.57,33.57,0,0,0,366,196.64c0-4.46-1.41-8-3.66-9.82" style="fill:#fff;fill-rule:evenodd"/><path d="M489.39,119.83h40l23.46,42.45,23.49-42.45H616L570.77,193v52.71h-36V193Z" style="fill:#191919"/><path d="M607.69,200.35q0-20.86,13-34.38t35.17-13.52q25.32,0,38.27,15.88,10.4,12.78,10.4,31.5,0,21-12.9,34.46T656,247.73q-20.33,0-32.87-11.16Q607.7,222.76,607.69,200.35Zm32.4-.09q0,12.19,4.56,18a14.27,14.27,0,0,0,23,.08q4.49-5.75,4.49-18.45,0-11.85-4.53-17.64t-11.19-5.8a14.23,14.23,0,0,0-11.68,5.88Q640.09,188.24,640.09,200.26Z" style="fill:#191919"/><path d="M809,245.67H778.8V230.9q-6.75,9.1-13.62,13t-16.87,3.86q-13.34,0-20.92-8.63t-7.58-26.57v-58h32.47v50.13q0,8.58,2.94,12.19a10,10,0,0,0,8.25,3.6,11.43,11.43,0,0,0,9.49-4.81q3.69-4.8,3.69-17.25V154.51H809Z" style="fill:#191919"/><path d="M917.35,119.83V245.67H887.1V232.19q-6.36,8.58-11.6,11.59a31.06,31.06,0,0,1-15.56,3.95q-17.22,0-26.32-14.17t-9.09-34.42q0-22.65,10-34.68a31.84,31.84,0,0,1,25.53-12,33.29,33.29,0,0,1,13.7,2.74,31.32,31.32,0,0,1,10.91,8.24v-43.6Zm-32.4,80q0-10.72-4.21-16a13,13,0,0,0-10.63-5.28q-5.64,0-9.45,5.07t-3.81,17q0,11.16,3.93,16.35t9.72,5.2a12.65,12.65,0,0,0,10.32-5.24Q885,211.68,885,199.83Z" style="fill:#191919"/><path d="M1030.65,208.76H965.86q.87,8.42,4.21,12.53a14.83,14.83,0,0,0,12.22,5.92,17.39,17.39,0,0,0,9.06-2.57,22.27,22.27,0,0,0,5.63-5.75l31.84,3.17q-7.3,13.74-17.63,19.7t-29.61,6q-16.76,0-26.36-5.11T939.3,226.4Q933,215.29,933,200.26q0-21.37,12.66-34.59t35-13.22q18.09,0,28.58,5.92a38.57,38.57,0,0,1,16,17.17q5.47,11.24,5.48,29.27ZM997.78,192q-1-10.12-5-14.51A14,14,0,0,0,982,173.13a14.31,14.31,0,0,0-12.31,6.61q-2.94,4.13-3.73,12.28Z" style="fill:#191919"/><path d="M1045.73,154.51h30.17v13.3q6.52-8.33,13.16-11.84a33.78,33.78,0,0,1,16-3.52q10.11,0,16,3.86a28.05,28.05,0,0,1,9.62,11.5q7.61-8.92,13.87-12.14t15.46-3.22q13.56,0,21.17,8.71t7.62,27.25v57.26h-32.4V193.73q0-6.18-2.21-9.18-3.26-4.73-8.07-4.72a11.09,11.09,0,0,0-9.18,4.46q-3.48,4.47-3.48,14.34v47h-32.4V195.45a34.29,34.29,0,0,0-.63-8.15,11.22,11.22,0,0,0-3.59-5.54,9.11,9.11,0,0,0-6-2.1,11.15,11.15,0,0,0-9.16,4.55q-3.59,4.54-3.58,14.93v46.53h-32.4Z" style="fill:#191919"/><path d="M1198.81,154.51h34.1l17.39,60.68,16.15-60.68h31.85l-33.46,97.4q-5.71,16.66-11.66,22.51-8.42,8.25-25.64,8.25A170.79,170.79,0,0,1,1206,280.6l-2.54-24.37a47.56,47.56,0,0,0,15.55,2.4,14.33,14.33,0,0,0,9.24-2.84q3.52-2.83,6-10.14Z" style="fill:#191919"/></svg>